{"title":"Devils.Playground.2010.DVDRiP.XviD.SWESUB-Zen_Bud","uid":5919241,"size":741295494,"categoryP":"video","categoryS":"movies","magnet":"?xt=urn:btih:ec42414580200fbd8414e3e9aa2157bb49e88077&amp;dn=Devils.Playground.2010.DVDRiP.XviD.SWESUB-Zen_Bud&amp;tr=udp%3A%2F%2Ftracker.openbittorrent.com%3A80&amp;tr=udp%3A%2F%2Fopen.demonii.com%3A1337&amp;tr=udp%3A%2F%2Ftracker.coppersurfer.tk%3A6969&amp;tr=udp%3A%2F%2Fexodus.desync.com%3A6969","seeders":0,"leechers":1,"uploader":"Zen_Bud","files":-1,"time":1288342904,"description":"*********** DevilÃ‚Â´s.Playground.2010.DVDRiP.XviD.SWESUB-Zen_Bud ************\n\nFormat                           : AVI\nFile size                        : 707 MiB\nDuration                         : 1h 33mn\nOverall bit rate                 : 1 063 Kbps\n\nVideo\n\nFormat                           : MPEG-4 Visual\nCodec ID/Hint                    : XviD\nDuration                         : 1h 33mn\nBit rate                         : 938 Kbps\nWidth                            : 720 pixels\nHeight                           : 408 pixels\nDisplay aspect ratio             : 2.092\nStream size                      : 624 MiB (88%)\nWriting library                  : XviD 1.1.2 \n\nAudio\n\nFormat                           : MPEG Audio\nCodec ID/Hint                    : MP3\nDuration                         : 1h 33mn\nBit rate                         : 112 Kbps\nChannel(s)                       : 2 channels\nSampling rate                    : 48.0 KHz\nStream size                      : 74.5 MiB (11%)\nWriting library                  : LAME3.98\n\nAs the world succumbs to a zombie apocalypse, Cole a hardened mercenary, \nis chasing the one person who can provide a cure.\nNot only to the plague but to Cole's own incumbent destiny. \nDEVIL'S PLAYGROUND is a cutting edge \nBritish horror film that features zombies portrayed by free runners for a terrifyingly authentic representation of the undead","torrent":{"xt":"urn:btih:ec42414580200fbd8414e3e9aa2157bb49e88077","amp;dn":"Devils.Playground.2010.DVDRiP.XviD.SWESUB-Zen_Bud","amp;tr":["udp%3A%2F%2Ftracker.openbittorrent.com%3A80","udp%3A%2F%2Fopen.demonii.com%3A1337","udp%3A%2F%2Ftracker.coppersurfer.tk%3A6969","udp%3A%2F%2Fexodus.desync.com%3A6969"],"infoHash":"ec42414580200fbd8414e3e9aa2157bb49e88077","infoHashBuffer":{"type":"Buffer","data":[236,66,65,69,128,32,15,189,132,20,227,233,170,33,87,187,73,232,128,119]},"announce":[],"urlList":[]}}